<mxfile host="app.diagrams.net" modified="2022-11-19T14:38:46.231Z" agent="5.0 (Windows NT 10.0; Win64; x64) AppleWebKit/537.36 (KHTML, like Gecko) Chrome/107.0.0.0 Safari/537.36" etag="5YlgH9p-8nCSTJqVHb0q" version="20.5.3" type="github">
  <diagram name="Page-1" id="03018318-947c-dd8e-b7a3-06fadd420f32">
    <mxGraphModel dx="2636" dy="1411" grid="1" gridSize="10" guides="1" tooltips="1" connect="1" arrows="1" fold="1" page="1" pageScale="1" pageWidth="1100" pageHeight="850" background="none" math="0" shadow="0">
      <root>
        <mxCell id="0" />
        <mxCell id="1" parent="0" />
        <mxCell id="677b7b8949515195-1" value="" style="whiteSpace=wrap;html=1;rounded=0;shadow=0;labelBackgroundColor=none;strokeColor=default;strokeWidth=1;fillColor=none;fontFamily=Verdana;fontSize=12;fontColor=#000000;align=center;comic=0;imageAspect=1;connectable=1;allowArrows=1;recursiveResize=1;expand=1;" parent="1" vertex="1">
          <mxGeometry x="20" y="20" width="1060" height="50" as="geometry" />
        </mxCell>
        <mxCell id="677b7b8949515195-2" value="&lt;div style=&quot;&quot;&gt;&lt;span style=&quot;font-size: 17px; background-color: initial;&quot;&gt;Логотип&lt;/span&gt;&lt;/div&gt;" style="whiteSpace=wrap;html=1;rounded=0;shadow=0;labelBackgroundColor=none;strokeWidth=1;fontFamily=Verdana;fontSize=28;align=center;comic=0;" parent="1" vertex="1">
          <mxGeometry x="30" y="25" width="105" height="40" as="geometry" />
        </mxCell>
        <mxCell id="677b7b8949515195-25" value="" style="whiteSpace=wrap;html=1;rounded=0;shadow=0;labelBackgroundColor=none;strokeWidth=1;fillColor=none;fontFamily=Verdana;fontSize=12;align=center;comic=0;" parent="1" vertex="1">
          <mxGeometry x="847.5" y="530" width="230" height="620" as="geometry" />
        </mxCell>
        <mxCell id="ei4Z1CyDfGhYZdKIR3ee-7" value="Text" style="text;html=1;strokeColor=none;fillColor=none;align=center;verticalAlign=middle;whiteSpace=wrap;rounded=0;" parent="1" vertex="1">
          <mxGeometry x="517.5" y="530" width="60" height="30" as="geometry" />
        </mxCell>
        <mxCell id="ei4Z1CyDfGhYZdKIR3ee-10" value="&lt;font style=&quot;font-size: 24px;&quot;&gt;Контент&lt;/font&gt;" style="rounded=0;whiteSpace=wrap;html=1;" parent="1" vertex="1">
          <mxGeometry x="17.5" y="530" width="810" height="540" as="geometry" />
        </mxCell>
        <mxCell id="ei4Z1CyDfGhYZdKIR3ee-20" value="&lt;font style=&quot;font-size: 24px;&quot;&gt;Меню&lt;/font&gt;" style="text;html=1;strokeColor=none;fillColor=none;align=center;verticalAlign=middle;whiteSpace=wrap;rounded=0;" parent="1" vertex="1">
          <mxGeometry x="932.5" y="800" width="60" height="30" as="geometry" />
        </mxCell>
        <mxCell id="uyejXc29SuM8AP5--v-B-1" value="&lt;font style=&quot;font-size: 18px;&quot;&gt;Кнопка&lt;/font&gt;" style="rounded=0;whiteSpace=wrap;html=1;comic=0;strokeColor=default;fontSize=24;" parent="1" vertex="1">
          <mxGeometry x="270" y="25" width="100" height="40" as="geometry" />
        </mxCell>
        <mxCell id="uyejXc29SuM8AP5--v-B-2" value="&lt;font style=&quot;font-size: 18px;&quot;&gt;Кнопка&lt;/font&gt;" style="rounded=0;whiteSpace=wrap;html=1;comic=0;strokeColor=default;fontSize=24;" parent="1" vertex="1">
          <mxGeometry x="150" y="25" width="100" height="40" as="geometry" />
        </mxCell>
        <mxCell id="uyejXc29SuM8AP5--v-B-5" value="&lt;font style=&quot;font-size: 18px;&quot;&gt;Профиль&lt;/font&gt;" style="rounded=0;whiteSpace=wrap;html=1;comic=0;strokeColor=default;fontSize=24;" parent="1" vertex="1">
          <mxGeometry x="917.5" y="25" width="150" height="40" as="geometry" />
        </mxCell>
        <mxCell id="uyejXc29SuM8AP5--v-B-6" value="Поиск" style="rounded=0;whiteSpace=wrap;html=1;comic=0;strokeColor=default;fontSize=18;" parent="1" vertex="1">
          <mxGeometry x="400" y="30" width="270" height="30" as="geometry" />
        </mxCell>
        <mxCell id="OivIQVhGJJmc8ZcwpkG4-1" value="" style="rounded=0;whiteSpace=wrap;html=1;fontSize=34;" parent="1" vertex="1">
          <mxGeometry x="20" y="70" width="1057.5" height="140" as="geometry" />
        </mxCell>
        <mxCell id="OivIQVhGJJmc8ZcwpkG4-3" value="" style="rounded=0;whiteSpace=wrap;html=1;fontSize=34;" parent="1" vertex="1">
          <mxGeometry x="17.5" y="1170" width="1060" height="80" as="geometry" />
        </mxCell>
        <mxCell id="OivIQVhGJJmc8ZcwpkG4-7" value="&lt;font style=&quot;font-size: 24px;&quot;&gt;Навигация по статьям&lt;/font&gt;" style="rounded=0;whiteSpace=wrap;html=1;fontSize=34;" parent="1" vertex="1">
          <mxGeometry x="17.5" y="1090" width="810" height="60" as="geometry" />
        </mxCell>
        <mxCell id="8EcM-31Fgu_RettWz_Gy-1" value="" style="endArrow=none;html=1;rounded=0;exitX=0;exitY=0;exitDx=0;exitDy=0;" edge="1" parent="1" source="677b7b8949515195-1">
          <mxGeometry width="50" height="50" relative="1" as="geometry">
            <mxPoint x="100" y="210" as="sourcePoint" />
            <mxPoint x="10" y="20" as="targetPoint" />
          </mxGeometry>
        </mxCell>
        <mxCell id="8EcM-31Fgu_RettWz_Gy-2" value="" style="endArrow=none;html=1;rounded=0;entryX=0;entryY=1;entryDx=0;entryDy=0;" edge="1" parent="1" target="677b7b8949515195-1">
          <mxGeometry width="50" height="50" relative="1" as="geometry">
            <mxPoint x="10" y="70" as="sourcePoint" />
            <mxPoint x="20" y="30" as="targetPoint" />
          </mxGeometry>
        </mxCell>
        <mxCell id="8EcM-31Fgu_RettWz_Gy-3" value="" style="endArrow=classic;startArrow=classic;html=1;rounded=0;" edge="1" parent="1">
          <mxGeometry width="50" height="50" relative="1" as="geometry">
            <mxPoint x="10" y="70" as="sourcePoint" />
            <mxPoint x="10" y="20" as="targetPoint" />
          </mxGeometry>
        </mxCell>
        <mxCell id="8EcM-31Fgu_RettWz_Gy-4" value="180px" style="text;html=1;strokeColor=none;fillColor=none;align=center;verticalAlign=middle;whiteSpace=wrap;rounded=0;" vertex="1" parent="1">
          <mxGeometry x="-70" y="30" width="60" height="30" as="geometry" />
        </mxCell>
        <mxCell id="8EcM-31Fgu_RettWz_Gy-5" value="" style="endArrow=none;html=1;rounded=0;exitX=0;exitY=0;exitDx=0;exitDy=0;" edge="1" parent="1">
          <mxGeometry width="50" height="50" relative="1" as="geometry">
            <mxPoint x="20.000000000000455" y="70" as="sourcePoint" />
            <mxPoint x="10" y="70" as="targetPoint" />
          </mxGeometry>
        </mxCell>
        <mxCell id="8EcM-31Fgu_RettWz_Gy-6" value="" style="endArrow=none;html=1;rounded=0;entryX=0;entryY=1;entryDx=0;entryDy=0;" edge="1" parent="1">
          <mxGeometry width="50" height="50" relative="1" as="geometry">
            <mxPoint x="10" y="210" as="sourcePoint" />
            <mxPoint x="19.99999999999909" y="120" as="targetPoint" />
            <Array as="points">
              <mxPoint x="20" y="210" />
            </Array>
          </mxGeometry>
        </mxCell>
        <mxCell id="8EcM-31Fgu_RettWz_Gy-7" value="" style="endArrow=classic;startArrow=classic;html=1;rounded=0;" edge="1" parent="1">
          <mxGeometry width="50" height="50" relative="1" as="geometry">
            <mxPoint x="10" y="210" as="sourcePoint" />
            <mxPoint x="10" y="70" as="targetPoint" />
          </mxGeometry>
        </mxCell>
        <mxCell id="8EcM-31Fgu_RettWz_Gy-10" value="&lt;span style=&quot;font-size: 34px;&quot;&gt;Слайдер с информацией о тематике разделов&lt;/span&gt;" style="rounded=0;whiteSpace=wrap;html=1;" vertex="1" parent="1">
          <mxGeometry x="20" y="210" width="1060" height="310" as="geometry" />
        </mxCell>
        <mxCell id="8EcM-31Fgu_RettWz_Gy-11" value="360px" style="text;html=1;strokeColor=none;fillColor=none;align=center;verticalAlign=middle;whiteSpace=wrap;rounded=0;" vertex="1" parent="1">
          <mxGeometry x="-70" y="125" width="60" height="30" as="geometry" />
        </mxCell>
        <mxCell id="8EcM-31Fgu_RettWz_Gy-12" value="" style="endArrow=none;html=1;rounded=0;entryX=0;entryY=1;entryDx=0;entryDy=0;" edge="1" parent="1">
          <mxGeometry width="50" height="50" relative="1" as="geometry">
            <mxPoint x="10" y="520" as="sourcePoint" />
            <mxPoint x="19.999999999998863" y="260" as="targetPoint" />
            <Array as="points">
              <mxPoint x="20" y="520" />
            </Array>
          </mxGeometry>
        </mxCell>
        <mxCell id="8EcM-31Fgu_RettWz_Gy-13" value="" style="endArrow=classic;startArrow=classic;html=1;rounded=0;" edge="1" parent="1">
          <mxGeometry width="50" height="50" relative="1" as="geometry">
            <mxPoint x="10" y="520" as="sourcePoint" />
            <mxPoint x="10.000000000000227" y="210" as="targetPoint" />
          </mxGeometry>
        </mxCell>
        <mxCell id="8EcM-31Fgu_RettWz_Gy-14" value="540px" style="text;html=1;strokeColor=none;fillColor=none;align=center;verticalAlign=middle;whiteSpace=wrap;rounded=0;" vertex="1" parent="1">
          <mxGeometry x="-70" y="340" width="60" height="30" as="geometry" />
        </mxCell>
      </root>
    </mxGraphModel>
  </diagram>
</mxfile>
